<?xml version="1.0" encoding="utf-8"?>
<!-- Generator: Adobe Illustrator 27.5.0, SVG Export Plug-In . SVG Version: 6.00 Build 0)  -->
<svg version="1.1" xmlns="http://www.w3.org/2000/svg" xmlns:xlink="http://www.w3.org/1999/xlink" x="0px" y="0px"
	 viewBox="0 0 2200 2200" style="enable-background:new 0 0 2200 2200;" xml:space="preserve">
<g id="background">
	<rect style="fill:#FFFFFF;" width="2200" height="2200"/>
</g>
<g id="Objects">
	<g>
		<g>
			<path style="fill:#35C4FC;" d="M1100,656.928c-199.609,0-361.419,161.81-361.419,361.419l-81.405,117.069H428.76l-97.881-117.069
				v-74.559c0-25.686,16.48-48.492,40.864-56.554l144.712-47.86c11.429-37.339,26.331-73.165,44.362-107.084l-68.483-136.177
				c-11.547-22.964-7.076-50.728,11.1-68.891l105.44-105.44c18.163-18.176,45.927-22.648,68.891-11.1l136.177,68.483
				c33.919-18.031,69.746-32.933,107.084-44.362l47.86-144.712c8.062-24.384,30.868-40.864,56.554-40.864H1100l25.66,35.458v349.102
				L1100,656.928z"/>
			<path style="fill:#E24747;" d="M1869.121,943.788v74.559l-23.253,33.161H1484.56l-23.141-33.161
				c0-199.609-161.81-361.419-361.419-361.419V536.625c0-6.8-8.115-10.324-13.073-5.669c-10.114,9.469-23.713,15.256-38.667,15.243
				c-31.302,0-57.014-26.173-56.515-57.475c0.5-30.802,25.62-55.633,56.541-55.633c14.928,0,28.501,5.8,38.601,15.243
				c4.985,4.656,13.113,1.157,13.113-5.642V249.226h74.559c25.686,0,48.492,16.48,56.554,40.864l47.861,144.712
				c37.339,11.429,73.165,26.331,107.084,44.362l136.177-68.483c22.964-11.547,50.728-7.076,68.891,11.1l105.44,105.44
				c18.176,18.163,22.648,45.927,11.1,68.891l-68.483,136.177c18.031,33.919,32.933,69.745,44.362,107.084l144.713,47.86
				C1852.641,895.296,1869.121,918.102,1869.121,943.788z"/>
			<path style="fill:#40BF4C;" d="M1869.121,1018.347v74.559c0,25.686-16.48,48.492-40.864,56.554l-144.713,47.86
				c-11.429,37.339-26.33,73.165-44.362,107.084l68.483,136.177c11.548,22.964,7.076,50.728-11.1,68.891l-105.44,105.44
				c-18.163,18.176-45.927,22.648-68.891,11.1l-136.177-68.483c-33.919,18.032-69.746,32.933-107.084,44.362l-47.861,144.712
				c-8.062,24.384-30.868,40.864-56.554,40.864H1100l-39.601-29.736v-330.969l39.601-46.996
				c199.609,0,361.419-161.81,361.419-361.419h120.302c6.8,0,10.324-8.115,5.669-13.073c-9.47-10.114-15.257-23.713-15.243-38.667
				c0-31.302,26.173-57.014,57.475-56.515c30.802,0.5,55.633,25.62,55.633,56.541c0,14.928-5.8,28.501-15.243,38.601
				c-4.656,4.985-1.157,13.113,5.642,13.113H1869.121z"/>
			<path style="fill:#F9CD16;" d="M1208.255,1547.968c-0.5,30.802-25.62,55.633-56.541,55.633c-14.928,0-28.501-5.8-38.601-15.243
				c-4.985-4.656-13.113-1.157-13.113,5.642v193.467h-74.559c-25.686,0-48.492-16.479-56.554-40.864l-47.86-144.712
				c-37.339-11.429-73.165-26.33-107.084-44.362l-136.177,68.483c-22.964,11.548-50.728,7.076-68.891-11.1l-105.44-105.44
				c-18.176-18.163-22.648-45.927-11.1-68.891l68.483-136.177c-18.031-33.919-32.933-69.746-44.362-107.084l-144.712-47.86
				c-24.384-8.062-40.864-30.868-40.864-56.554v-74.559h193.467c6.8,0,10.298,8.128,5.642,13.113
				c-9.443,10.101-15.243,23.674-15.243,38.601c0,30.921,24.831,56.041,55.633,56.541c31.302,0.5,57.475-25.213,57.475-56.515
				c0.013-14.954-5.774-28.553-15.243-38.667c-4.656-4.958-1.131-13.073,5.669-13.073h120.302
				c0,199.609,161.81,361.419,361.419,361.419v120.302c0,6.8,8.115,10.324,13.073,5.669c10.114-9.469,23.713-15.256,38.667-15.243
				C1183.042,1490.494,1208.755,1516.667,1208.255,1547.968z"/>
		</g>
		<ellipse style="fill:#C4D2D6;" cx="1100" cy="1902.792" rx="491.904" ry="47.982"/>
	</g>
</g>
</svg>
